<svg xmlns="http://www.w3.org/2000/svg" xmlns:xlink="http://www.w3.org/1999/xlink" width="2000" zoomAndPan="magnify" viewBox="0 0 1500 449.999984" height="600" preserveAspectRatio="xMidYMid meet" version="1.0"><defs><g/><clipPath id="88d2847e86"><path d="M 1409.890625 114.582031 L 1448.632812 114.582031 L 1448.632812 153.324219 L 1409.890625 153.324219 Z M 1409.890625 114.582031 " clip-rule="nonzero"/></clipPath><clipPath id="673a540c61"><path d="M 1429.261719 114.582031 C 1418.566406 114.582031 1409.890625 123.253906 1409.890625 133.953125 C 1409.890625 144.652344 1418.566406 153.324219 1429.261719 153.324219 C 1439.960938 153.324219 1448.632812 144.652344 1448.632812 133.953125 C 1448.632812 123.253906 1439.960938 114.582031 1429.261719 114.582031 Z M 1429.261719 114.582031 " clip-rule="nonzero"/></clipPath></defs><g fill="#000000" fill-opacity="1"><g transform="translate(20.617967, 302.999976)"><g><path d="M 48.234375 -180.953125 L 48.234375 -104.640625 L 48.71875 -104.640625 L 104.640625 -180.953125 L 148.078125 -180.953125 L 79.4375 -97.4375 L 151.921875 0 L 106.5625 0 L 48.71875 -81.359375 L 48.234375 -81.359375 L 48.234375 0 L 12.953125 0 L 12.953125 -180.953125 Z M 48.234375 -180.953125 "/></g></g></g><g fill="#000000" fill-opacity="1"><g transform="translate(169.4177, 302.999976)"><g><path d="M 90.234375 -117.84375 L 123.359375 -117.84375 L 123.359375 0 L 90.234375 0 L 90.234375 -10.796875 L 89.765625 -10.796875 C 86.242188 -6.160156 81.5625 -2.5625 75.71875 0 C 69.875 2.5625 63.914062 3.84375 57.84375 3.84375 C 42.320312 3.84375 29.398438 -2.273438 19.078125 -14.515625 C 8.753906 -26.753906 3.59375 -41.753906 3.59375 -59.515625 C 3.59375 -70.554688 5.832031 -80.796875 10.3125 -90.234375 C 14.800781 -99.679688 21.164062 -107.285156 29.40625 -113.046875 C 37.644531 -118.804688 46.960938 -121.6875 57.359375 -121.6875 C 63.441406 -121.6875 69.398438 -120.40625 75.234375 -117.84375 C 81.078125 -115.28125 86.078125 -111.597656 90.234375 -106.796875 Z M 65.28125 -91.921875 C 57.757812 -91.921875 51.28125 -88.679688 45.84375 -82.203125 C 40.40625 -75.722656 37.6875 -68.003906 37.6875 -59.046875 C 37.6875 -50.078125 40.40625 -42.3125 45.84375 -35.75 C 51.28125 -29.195312 57.835938 -25.921875 65.515625 -25.921875 C 73.359375 -25.921875 80 -29.160156 85.4375 -35.640625 C 90.875 -42.117188 93.59375 -49.921875 93.59375 -59.046875 C 93.59375 -68.160156 90.832031 -75.914062 85.3125 -82.3125 C 79.800781 -88.71875 73.125 -91.921875 65.28125 -91.921875 Z M 65.28125 -91.921875 "/></g></g></g><g fill="#000000" fill-opacity="1"><g transform="translate(305.017472, 302.999976)"><g><path d="M 10.5625 -167.28125 C 10.5625 -172.5625 12.476562 -177.203125 16.3125 -181.203125 C 20.15625 -185.203125 24.878906 -187.203125 30.484375 -187.203125 C 36.078125 -187.203125 40.796875 -185.203125 44.640625 -181.203125 C 48.484375 -177.203125 50.40625 -172.5625 50.40625 -167.28125 C 50.40625 -161.675781 48.484375 -156.953125 44.640625 -153.109375 C 40.796875 -149.273438 36.078125 -147.359375 30.484375 -147.359375 C 24.878906 -147.359375 20.15625 -149.273438 16.3125 -153.109375 C 12.476562 -156.953125 10.5625 -161.675781 10.5625 -167.28125 Z M 47.28125 -117.84375 L 47.28125 0 L 13.6875 0 L 13.6875 -117.84375 Z M 47.28125 -117.84375 "/></g></g></g><g fill="#000000" fill-opacity="1"><g transform="translate(365.737369, 302.999976)"><g><path d="M 85.203125 -87.59375 C 81.035156 -90.476562 76.394531 -91.921875 71.28125 -91.921875 C 62.632812 -91.921875 56.191406 -89 51.953125 -83.15625 C 47.710938 -77.320312 45.59375 -67.679688 45.59375 -54.234375 L 45.59375 0 L 12 0 L 12 -117.84375 L 45.59375 -117.84375 L 45.59375 -105.59375 L 46.078125 -105.59375 C 49.441406 -110.71875 53.601562 -114.679688 58.5625 -117.484375 C 63.519531 -120.285156 69.117188 -121.6875 75.359375 -121.6875 C 79.992188 -121.519531 84.632812 -120.554688 89.28125 -118.796875 Z M 85.203125 -87.59375 "/></g></g></g><g fill="#000000" fill-opacity="1"><g transform="translate(453.817227, 302.999976)"><g><path d="M 3.84375 -58.796875 C 3.84375 -77.359375 9.679688 -92.476562 21.359375 -104.15625 C 33.035156 -115.84375 47.835938 -121.6875 65.765625 -121.6875 C 84.003906 -121.6875 98.882812 -115.765625 110.40625 -103.921875 C 121.925781 -92.078125 127.6875 -77.035156 127.6875 -58.796875 C 127.6875 -40.398438 121.882812 -25.359375 110.28125 -13.671875 C 98.675781 -1.992188 83.835938 3.84375 65.765625 3.84375 C 47.679688 3.84375 32.835938 -2.035156 21.234375 -13.796875 C 9.640625 -25.554688 3.84375 -40.554688 3.84375 -58.796875 Z M 65.515625 -91.921875 C 57.992188 -91.921875 51.515625 -88.679688 46.078125 -82.203125 C 40.640625 -75.722656 37.921875 -67.921875 37.921875 -58.796875 C 37.921875 -49.992188 40.640625 -42.3125 46.078125 -35.75 C 51.515625 -29.195312 58.078125 -25.921875 65.765625 -25.921875 C 73.765625 -25.921875 80.398438 -29.195312 85.671875 -35.75 C 90.953125 -42.3125 93.59375 -49.992188 93.59375 -58.796875 C 93.59375 -67.441406 90.992188 -75.125 85.796875 -81.84375 C 80.597656 -88.5625 73.835938 -91.921875 65.515625 -91.921875 Z M 65.515625 -91.921875 "/></g></g></g><g fill="#000000" fill-opacity="1"><g transform="translate(585.337021, 302.999976)"><g><path d="M 72.484375 -90 C 70.078125 -92.238281 67.351562 -94.15625 64.3125 -95.75 C 61.28125 -97.351562 58.082031 -98.15625 54.71875 -98.15625 C 52 -98.15625 49.476562 -97.195312 47.15625 -95.28125 C 44.84375 -93.363281 43.6875 -90.960938 43.6875 -88.078125 C 43.6875 -85.035156 45.003906 -82.632812 47.640625 -80.875 C 50.273438 -79.113281 54.394531 -77.113281 60 -74.875 L 67.921875 -71.765625 C 75.273438 -68.878906 81.148438 -64.753906 85.546875 -59.390625 C 89.953125 -54.035156 92.15625 -46.878906 92.15625 -37.921875 C 92.15625 -25.765625 87.875 -15.765625 79.3125 -7.921875 C 70.757812 -0.078125 59.757812 3.84375 46.3125 3.84375 C 38.15625 3.84375 30.476562 2.125 23.28125 -1.3125 C 16.082031 -4.757812 9.921875 -9.601562 4.796875 -15.84375 L 20.15625 -35.765625 C 23.519531 -32.078125 27.28125 -28.875 31.4375 -26.15625 C 35.601562 -23.4375 40.164062 -22.078125 45.125 -22.078125 C 48.800781 -22.078125 51.957031 -23.238281 54.59375 -25.5625 C 57.238281 -27.882812 58.5625 -30.960938 58.5625 -34.796875 C 58.5625 -38.472656 57.160156 -41.351562 54.359375 -43.4375 C 51.554688 -45.519531 47.359375 -47.679688 41.765625 -49.921875 C 31.523438 -53.765625 24.679688 -57.242188 21.234375 -60.359375 C 17.796875 -63.484375 15.316406 -66.921875 13.796875 -70.671875 C 12.273438 -74.429688 11.515625 -78.710938 11.515625 -83.515625 C 11.515625 -94.554688 15.070312 -103.675781 22.1875 -110.875 C 29.3125 -118.082031 38.234375 -121.6875 48.953125 -121.6875 C 55.835938 -121.519531 62.71875 -120.4375 69.59375 -118.4375 C 76.476562 -116.4375 82.238281 -113.4375 86.875 -109.4375 Z M 72.484375 -90 "/></g></g></g><path stroke-linecap="butt" transform="matrix(0.75, 0, 0, 0.75, 684.333598, 56.999996)" fill="none" stroke-linejoin="miter" d="M 105.997919 80.343762 L 165.529174 239.32815 L 222.482304 80.343762 L 256.388556 80.343762 L 292.560434 328.000031 L 245.21668 328.000031 L 225.997929 178.234395 L 225.372929 178.234395 L 170.685424 331.203157 L 154.357298 331.203157 L 101.544794 178.234395 L 100.919794 178.234395 L 79.435417 328.000031 L 32.091664 328.000031 L 72.716667 80.343762 Z M 355.940647 170.890644 L 355.940647 257.296901 C 355.940647 282.661486 364.482315 295.343779 381.565649 295.343779 C 398.596901 295.343779 407.112526 282.661486 407.112526 257.296901 L 407.112526 170.890644 L 451.95628 170.890644 L 451.95628 264.640652 C 451.95628 286.203153 446.175029 303.026071 434.612528 315.109405 C 423.102111 327.140656 405.419818 333.156282 381.565649 333.156282 C 357.867731 333.156282 340.211479 327.088573 328.596895 314.953155 C 316.982311 302.765655 311.175019 285.99482 311.175019 264.640652 L 311.175019 170.890644 Z M 563.935455 208.000022 C 560.758372 205.031272 557.13858 202.479188 553.076079 200.343772 C 549.013579 198.208355 544.742745 197.140646 540.263578 197.140646 C 536.617745 197.140646 533.232328 198.416688 530.107327 200.968772 C 527.034411 203.520855 525.497952 206.72398 525.497952 210.578147 C 525.497952 214.640648 527.268786 217.843773 530.810453 220.187523 C 534.352119 222.531273 539.846912 225.187523 547.294829 228.156274 L 557.841705 232.296899 C 567.685455 236.151066 575.523998 241.645858 581.357331 248.781275 C 587.242749 255.916693 590.185457 265.473985 590.185457 277.453153 C 590.185457 293.65107 584.482332 306.984405 573.076081 317.453156 C 561.66983 327.921906 547.00837 333.156282 529.091702 333.156282 C 518.206285 333.156282 507.945867 330.864615 498.31045 326.281281 C 488.727116 321.645864 480.52399 315.18753 473.701073 306.90628 L 494.169825 280.343778 C 498.648992 285.239611 503.648992 289.510445 509.169826 293.156279 C 514.742743 296.750029 520.836493 298.546904 527.451077 298.546904 C 532.346911 298.546904 536.53962 297.010446 540.029203 293.937529 C 543.57087 290.812529 545.341704 286.697945 545.341704 281.593778 C 545.341704 276.697944 543.466704 272.869819 539.716703 270.109402 C 536.018786 267.296902 530.445869 264.406277 522.997952 261.437526 C 509.352118 256.333359 500.211492 251.697942 495.576075 247.531275 C 490.992741 243.364608 487.685449 238.781275 485.654199 233.781274 C 483.675032 228.72919 482.685449 223.026065 482.685449 216.671898 C 482.685449 201.932313 487.425032 189.770854 496.9042 180.18752 C 506.383367 170.552103 518.28441 165.734394 532.607328 165.734394 C 541.773995 165.942727 550.940662 167.401061 560.10733 170.109394 C 569.273997 172.765644 576.956289 176.75002 583.154207 182.06252 Z M 658.341712 170.890644 L 658.341712 257.296901 C 658.341712 282.661486 666.88338 295.343779 683.966714 295.343779 C 700.997966 295.343779 709.513591 282.661486 709.513591 257.296901 L 709.513591 170.890644 L 754.357345 170.890644 L 754.357345 264.640652 C 754.357345 286.203153 748.576094 303.026071 737.013594 315.109405 C 725.503176 327.140656 707.820883 333.156282 683.966714 333.156282 C 660.268796 333.156282 642.612545 327.088573 630.99796 314.953155 C 619.383376 302.765655 613.576084 285.99482 613.576084 264.640652 L 613.576084 170.890644 Z M 830.477143 56.671885 L 830.477143 185.265645 C 836.05006 179.067728 842.664643 174.276061 850.320894 170.890644 C 858.029228 167.453144 865.919854 165.734394 873.992771 165.734394 C 887.221939 165.734394 899.383398 169.484394 910.477149 176.984395 C 921.5709 184.432312 930.216734 194.614604 936.414651 207.531272 C 942.612568 220.44794 945.711527 234.145857 945.711527 248.625025 C 945.711527 264.197943 942.612568 278.546903 936.414651 291.671904 C 930.216734 304.796905 921.518816 315.005239 910.320899 322.296906 C 899.122981 329.53649 886.701105 333.156282 873.055271 333.156282 C 864.93027 333.156282 857.013603 331.437532 849.305269 328.000031 C 841.649018 324.562531 835.58131 319.666697 831.102143 313.31253 L 830.477143 313.31253 L 830.477143 328.000031 L 785.711514 328.000031 L 785.711514 56.671885 Z M 862.820895 205.421897 C 852.768811 205.421897 844.122977 209.744814 836.883393 218.390648 C 829.643809 227.036482 826.024017 237.322941 826.024017 249.250025 C 826.024017 261.437526 829.643809 271.854194 836.883393 280.500028 C 844.122977 289.145862 852.872978 293.468779 863.133395 293.468779 C 874.018813 293.468779 882.925063 288.989612 889.852147 280.031278 C 896.779231 271.072944 900.242773 260.812526 900.242773 249.250025 C 900.242773 237.739608 896.727148 227.557315 889.695897 218.703148 C 882.664647 209.848981 873.706313 205.421897 862.820895 205.421897 Z M 964.560486 104.953139 C 964.560486 97.921889 967.11257 91.750013 972.216737 86.437513 C 977.372987 81.072929 983.675071 78.390637 991.122988 78.390637 C 998.622989 78.390637 1004.925073 81.072929 1010.02924 86.437513 C 1015.133407 91.750013 1017.68549 97.921889 1017.68549 104.953139 C 1017.68549 112.401056 1015.133407 118.70314 1010.02924 123.859391 C 1004.925073 128.963558 998.622989 131.515641 991.122988 131.515641 C 983.675071 131.515641 977.372987 128.963558 972.216737 123.859391 C 967.11257 118.70314 964.560486 112.401056 964.560486 104.953139 Z M 1013.544865 170.890644 L 1013.544865 328.000031 L 968.701112 328.000031 L 968.701112 170.890644 Z M 1013.544865 170.890644 " stroke="#000000" stroke-width="12" stroke-opacity="1" stroke-miterlimit="4"/><g clip-path="url(#88d2847e86)"><g clip-path="url(#673a540c61)"><path fill="#000000" d="M 1409.890625 114.582031 L 1448.632812 114.582031 L 1448.632812 153.324219 L 1409.890625 153.324219 Z M 1409.890625 114.582031 " fill-opacity="1" fill-rule="nonzero"/></g></g></svg>